<?xml version="1.0" standalone="no"?>
<!DOCTYPE svg PUBLIC "-//W3C//DTD SVG 20010904//EN"
 "http://www.w3.org/TR/2001/REC-SVG-20010904/DTD/svg10.dtd">
<svg version="1.0" xmlns="http://www.w3.org/2000/svg"
 width="64.000000pt" height="64.000000pt" viewBox="0 0 64.000000 64.000000"
 preserveAspectRatio="xMidYMid meet">

<g transform="translate(0.000000,64.000000) scale(0.100000,-0.100000)"
fill="#000000" stroke="none">
<path d="M245 631 c-72 -19 -175 -87 -175 -117 0 -20 2 -19 46 23 60 56 116
78 204 78 62 0 85 -5 132 -28 107 -53 163 -144 163 -267 0 -123 -56 -214 -163
-267 -47 -23 -70 -28 -132 -28 -91 0 -149 24 -210 85 -94 94 -112 218 -54 358
3 6 1 12 -4 12 -5 0 -18 -19 -28 -42 -29 -64 -26 -187 6 -253 31 -64 91 -124
155 -155 72 -34 198 -34 270 0 64 31 124 91 155 155 34 72 34 198 0 270 -31
64 -92 124 -155 154 -54 25 -156 36 -210 22z"/>
<path d="M222 573 c-59 -21 -135 -99 -156 -159 -35 -104 -12 -207 64 -284 54
-53 117 -80 187 -80 65 0 52 16 -18 23 -241 22 -312 334 -105 462 44 27 58 30
126 30 68 0 82 -3 126 -30 122 -76 159 -230 84 -349 -25 -39 -93 -94 -134
-109 -6 -2 -8 -7 -5 -11 13 -13 78 23 122 66 169 169 42 461 -197 457 -28 0
-70 -7 -94 -16z"/>
<path d="M233 485 c-30 -30 -34 -39 -31 -77 3 -40 5 -43 32 -43 18 0 32 7 37
18 5 9 13 25 18 35 21 43 77 18 67 -31 -4 -20 -2 -27 7 -25 6 3 13 19 15 36 2
24 -2 34 -22 47 -37 25 -74 12 -92 -30 -18 -44 -44 -47 -44 -4 0 20 10 40 29
60 65 65 171 20 171 -72 0 -36 -5 -47 -40 -79 -23 -21 -40 -46 -40 -58 0 -15
-6 -22 -20 -22 -25 0 -28 45 -4 78 22 32 7 43 -17 13 -26 -32 -26 -97 1 -111
26 -14 60 3 60 31 0 11 18 37 40 58 37 35 40 42 40 90 0 47 -4 57 -34 87 -30
30 -40 34 -86 34 -46 0 -56 -4 -87 -35z"/>
<path d="M290 186 c-6 -8 -10 -25 -8 -38 2 -18 10 -24 35 -26 28 -3 33 1 39
23 11 45 -37 75 -66 41z m48 -29 c2 -12 -3 -17 -17 -17 -12 0 -21 6 -21 13 0
31 32 34 38 4z"/>
</g>
</svg>
